<svg width="39" height="45" viewBox="0 0 39 45" fill="none" xmlns="http://www.w3.org/2000/svg">
<g clip-path="url(#clip0_336_62)">
<path d="M22.2858 2.8125V4.5C28.6407 5.80342 33.4286 11.4785 33.4286 18.2812V19.9336C33.4286 24.0732 34.9346 28.0547 37.6507 31.1484L38.2949 31.8779C39.0262 32.7129 39.209 33.8906 38.7563 34.9014C38.3036 35.9121 37.3112 36.5625 36.2143 36.5625H2.78575C1.68888 36.5625 0.693944 35.9121 0.244574 34.9014C-0.204797 33.8906 -0.0250574 32.7129 0.703781 31.8779L1.34937 31.1484C4.06892 28.0547 5.57147 24.0732 5.57147 19.9336V18.2812C5.57147 11.4785 10.2811 5.80342 16.7143 4.5V2.8125C16.7143 1.25947 17.9592 0 19.5 0C21.0409 0 22.2858 1.25947 22.2858 2.8125ZM19.5 45C18.0201 45 16.6012 44.4111 15.5565 43.3564C14.5119 42.3018 13.9286 40.79 13.9286 39.375H25.0715C25.0715 40.79 24.4882 42.3018 23.4436 43.3564C22.3989 44.4111 20.9016 45 19.5 45Z" fill="white" fill-opacity="0.8"/>
</g>
<defs>
<clipPath id="clip0_336_62">
<rect width="39" height="45" fill="white"/>
</clipPath>
</defs>
</svg>
