<svg width="38" height="38" viewBox="0 0 38 38" fill="none" xmlns="http://www.w3.org/2000/svg">
<path d="M21.375 19C21.375 20.3137 20.3137 21.375 19 21.375C17.6863 21.375 16.625 20.3137 16.625 19C16.625 17.6863 17.6863 16.625 19 16.625C20.3137 16.625 21.375 17.6863 21.375 19ZM0 19C0 8.50547 8.50547 0 19 0C29.4945 0 38 8.50547 38 19C38 29.4945 29.4945 38 19 38C8.50547 38 0 29.4945 0 19ZM24.1285 22.7629L28.2477 12.0531C28.8043 10.5465 27.3867 9.1957 25.9469 9.75234L15.2371 13.8715C14.6062 14.109 14.109 14.6062 13.8715 15.2371L9.75234 25.9469C9.1957 27.3867 10.5465 28.8043 12.0531 28.2477L22.7629 24.1285C23.3938 23.891 23.891 23.3938 24.1285 22.7629Z" fill="white" fill-opacity="0.8"/>
</svg>
