<svg width="27" height="24" viewBox="0 0 27 24" fill="none" xmlns="http://www.w3.org/2000/svg">
    <path d="M-0.000488281 8.06699V7.76113C-0.000488281 4.07499 2.66365 0.93097 6.296 0.325579C8.65322 -0.0746748 11.1476 0.708958 12.8667 2.43074L13.4995 3.06249L14.0849 2.43074C15.8515 0.708958 18.2983 -0.0746748 20.703 0.325579C24.3364 0.93097 26.9995 4.07499 26.9995 7.76113V8.06699C26.9995 10.2555 26.0925 12.349 24.4894 13.8414L14.9603 22.7377C14.5647 23.1068 14.0427 23.3125 13.4995 23.3125C12.9563 23.3125 12.4343 23.1068 12.0388 22.7377L2.50914 13.8414C0.908125 12.349 -0.000472461 10.2555 -0.000472461 8.06699H-0.000488281Z" fill="#FF0000"/>
</svg>
    