<svg width="34" height="34" viewBox="0 0 34 34" fill="none" xmlns="http://www.w3.org/2000/svg">
<g clip-path="url(#clip0_330_5)">
<path d="M33.2231 29.4645L25.2742 21.5156C27.0818 18.8322 27.9736 15.4793 27.4962 11.9066C26.682 5.82981 21.7016 0.884539 15.6188 0.114426C6.5749 -1.02995 -1.02995 6.57489 0.114499 15.6188C0.884812 21.7042 5.83075 26.6887 11.9082 27.4988C15.4809 27.9762 18.8344 27.0847 21.5172 25.2769L29.4661 33.2257C30.5033 34.263 32.1854 34.263 33.2227 33.2257C34.259 32.1871 34.259 30.5004 33.2231 29.4645ZM5.25275 13.8125C5.25275 9.12555 9.0658 5.31251 13.7527 5.31251C18.4397 5.31251 22.2527 9.12555 22.2527 13.8125C22.2527 18.4995 18.4397 22.3125 13.7527 22.3125C9.0658 22.3125 5.25275 18.5008 5.25275 13.8125Z" fill="#00D244"/>
</g>
<defs>
<clipPath id="clip0_330_5">
<rect width="34" height="34" fill="white"/>
</clipPath>
</defs>
</svg>
