<svg width="35" height="37" viewBox="0 0 35 37" fill="none" xmlns="http://www.w3.org/2000/svg">
<path d="M31.2619 0.738098C33.1458 0.738098 34.6666 2.23513 34.6666 4.08966V33.1365C34.6666 34.9911 33.1458 36.4881 31.2619 36.4881C29.3779 36.4881 27.8571 34.9911 27.8571 33.1365V4.08966C27.8571 2.23513 29.3779 0.738098 31.2619 0.738098ZM4.02378 23.0818C5.90775 23.0818 7.42854 24.5789 7.42854 26.4334V33.1365C7.42854 34.9911 5.90775 36.4881 4.02378 36.4881C2.13981 36.4881 0.619019 34.9911 0.619019 33.1365V26.4334C0.619019 24.5789 2.13981 23.0818 4.02378 23.0818ZM17.6428 11.91C19.5268 11.91 21.0476 13.407 21.0476 15.2615V33.1365C21.0476 34.9911 19.5268 36.4881 17.6428 36.4881C15.7589 36.4881 14.2381 34.9911 14.2381 33.1365V15.2615C14.2381 13.407 15.7589 11.91 17.6428 11.91Z" fill="white" fill-opacity="0.8"/>
</svg>
