<svg width="29" height="28" viewBox="0 0 29 28" fill="none" xmlns="http://www.w3.org/2000/svg">
<path d="M27.0116 9.12917L18.9449 8.42917L15.7949 1.0125C15.2283 -0.3375 13.2949 -0.3375 12.7283 1.0125L9.57826 8.44583L1.52826 9.12917C0.0615958 9.24583 -0.538404 11.0792 0.578262 12.0458L6.69493 17.3458L4.8616 25.2125C4.52826 26.6458 6.07826 27.7792 7.34493 27.0125L14.2616 22.8458L21.1783 27.0292C22.4449 27.7958 23.9949 26.6625 23.6616 25.2292L21.8283 17.3458L27.9449 12.0458C29.0616 11.0792 28.4783 9.24583 27.0116 9.12917ZM14.2616 19.7292L7.99493 23.5125L9.6616 16.3792L4.12826 11.5792L11.4283 10.9458L14.2616 4.22917L17.1116 10.9625L24.4116 11.5958L18.8783 16.3958L20.5449 23.5292L14.2616 19.7292Z" fill="#00D244"/>
</svg>
